<mxfile host="app.diagrams.net" agent="Mozilla/5.0 (Windows NT 10.0; Win64; x64) AppleWebKit/537.36 (KHTML, like Gecko) Chrome/135.0.0.0 Safari/537.36" version="26.2.5">
  <diagram id="prtHgNgQTEPvFCAcTncT" name="Page-1">
    <mxGraphModel dx="2196" dy="1871" grid="1" gridSize="10" guides="1" tooltips="1" connect="1" arrows="1" fold="1" page="1" pageScale="1" pageWidth="827" pageHeight="1169" math="0" shadow="0">
      <root>
        <mxCell id="0" />
        <mxCell id="1" parent="0" />
        <mxCell id="2ID9JiFpqE2fWtw1pDJL-44" style="edgeStyle=orthogonalEdgeStyle;rounded=0;orthogonalLoop=1;jettySize=auto;html=1;exitX=0.5;exitY=0;exitDx=0;exitDy=0;entryX=0.5;entryY=1;entryDx=0;entryDy=0;" edge="1" parent="1" source="2ID9JiFpqE2fWtw1pDJL-2" target="2ID9JiFpqE2fWtw1pDJL-32">
          <mxGeometry relative="1" as="geometry" />
        </mxCell>
        <mxCell id="2ID9JiFpqE2fWtw1pDJL-46" style="edgeStyle=orthogonalEdgeStyle;rounded=0;orthogonalLoop=1;jettySize=auto;html=1;exitX=0.5;exitY=1;exitDx=0;exitDy=0;entryX=0;entryY=0.5;entryDx=0;entryDy=0;" edge="1" parent="1" source="2ID9JiFpqE2fWtw1pDJL-2" target="2ID9JiFpqE2fWtw1pDJL-25">
          <mxGeometry relative="1" as="geometry" />
        </mxCell>
        <mxCell id="2ID9JiFpqE2fWtw1pDJL-2" value="独立系统中&lt;div&gt;二开组件/套件/模板&lt;br&gt;&lt;br&gt;&lt;font style=&quot;color: rgb(255, 51, 51);&quot;&gt;内部消化&lt;/font&gt;&lt;/div&gt;" style="whiteSpace=wrap;html=1;aspect=fixed;" vertex="1" parent="1">
          <mxGeometry x="-480" y="110" width="110" height="110" as="geometry" />
        </mxCell>
        <mxCell id="2ID9JiFpqE2fWtw1pDJL-53" style="edgeStyle=orthogonalEdgeStyle;rounded=0;orthogonalLoop=1;jettySize=auto;html=1;exitX=0;exitY=0.5;exitDx=0;exitDy=0;entryX=1;entryY=0.5;entryDx=0;entryDy=0;" edge="1" parent="1" source="2ID9JiFpqE2fWtw1pDJL-22" target="2ID9JiFpqE2fWtw1pDJL-1">
          <mxGeometry relative="1" as="geometry" />
        </mxCell>
        <mxCell id="2ID9JiFpqE2fWtw1pDJL-22" value="组件库" style="ellipse;whiteSpace=wrap;html=1;aspect=fixed;" vertex="1" parent="1">
          <mxGeometry x="400" y="-25" width="80" height="80" as="geometry" />
        </mxCell>
        <mxCell id="2ID9JiFpqE2fWtw1pDJL-54" style="edgeStyle=orthogonalEdgeStyle;rounded=0;orthogonalLoop=1;jettySize=auto;html=1;exitX=0;exitY=0.5;exitDx=0;exitDy=0;" edge="1" parent="1" source="2ID9JiFpqE2fWtw1pDJL-23" target="2ID9JiFpqE2fWtw1pDJL-1">
          <mxGeometry relative="1" as="geometry" />
        </mxCell>
        <mxCell id="2ID9JiFpqE2fWtw1pDJL-23" value="低代码" style="ellipse;whiteSpace=wrap;html=1;aspect=fixed;" vertex="1" parent="1">
          <mxGeometry x="400" y="125" width="80" height="80" as="geometry" />
        </mxCell>
        <mxCell id="2ID9JiFpqE2fWtw1pDJL-24" value="渲染器&lt;div&gt;&lt;br&gt;&lt;/div&gt;" style="ellipse;whiteSpace=wrap;html=1;aspect=fixed;" vertex="1" parent="1">
          <mxGeometry x="560" y="440" width="80" height="80" as="geometry" />
        </mxCell>
        <mxCell id="2ID9JiFpqE2fWtw1pDJL-25" value="配置" style="rounded=1;whiteSpace=wrap;html=1;fillColor=#d5e8d4;strokeColor=#82b366;" vertex="1" parent="1">
          <mxGeometry y="320" width="120" height="60" as="geometry" />
        </mxCell>
        <mxCell id="2ID9JiFpqE2fWtw1pDJL-26" value="页面内容" style="ellipse;whiteSpace=wrap;html=1;" vertex="1" parent="1">
          <mxGeometry x="190" y="310" width="120" height="80" as="geometry" />
        </mxCell>
        <mxCell id="2ID9JiFpqE2fWtw1pDJL-29" value="组件库结合低代码平台组合成基座" style="text;html=1;align=center;verticalAlign=middle;whiteSpace=wrap;rounded=0;" vertex="1" parent="1">
          <mxGeometry x="354" y="70" width="60" height="30" as="geometry" />
        </mxCell>
        <mxCell id="2ID9JiFpqE2fWtw1pDJL-32" value="二开后的组件，有一定的通用性后，上传服务器&lt;br&gt;build umd包" style="rounded=0;whiteSpace=wrap;html=1;fillColor=#d5e8d4;strokeColor=#82b366;" vertex="1" parent="1">
          <mxGeometry x="-282.5" y="-180" width="155" height="100" as="geometry" />
        </mxCell>
        <mxCell id="2ID9JiFpqE2fWtw1pDJL-43" style="edgeStyle=orthogonalEdgeStyle;rounded=0;orthogonalLoop=1;jettySize=auto;html=1;exitX=0;exitY=0.5;exitDx=0;exitDy=0;" edge="1" parent="1" source="2ID9JiFpqE2fWtw1pDJL-34" target="2ID9JiFpqE2fWtw1pDJL-2">
          <mxGeometry relative="1" as="geometry" />
        </mxCell>
        <mxCell id="2ID9JiFpqE2fWtw1pDJL-34" value="独立系统&lt;br&gt;安装基座&lt;br&gt;&lt;font style=&quot;color: rgb(255, 51, 51);&quot;&gt;考虑到系统的类型，除了基础的，很多都是不通过的组件&lt;/font&gt;" style="rounded=0;whiteSpace=wrap;html=1;fillColor=#d5e8d4;strokeColor=#82b366;" vertex="1" parent="1">
          <mxGeometry x="-290" y="90" width="240" height="60" as="geometry" />
        </mxCell>
        <mxCell id="2ID9JiFpqE2fWtw1pDJL-4" value="服务器" style="ellipse;shape=cloud;whiteSpace=wrap;html=1;container=0;" vertex="1" parent="1">
          <mxGeometry x="180" y="-160" width="120" height="80" as="geometry" />
        </mxCell>
        <mxCell id="2ID9JiFpqE2fWtw1pDJL-50" value="" style="endArrow=classic;startArrow=classic;html=1;rounded=0;entryX=0.55;entryY=0.95;entryDx=0;entryDy=0;entryPerimeter=0;" edge="1" parent="1" source="2ID9JiFpqE2fWtw1pDJL-1" target="2ID9JiFpqE2fWtw1pDJL-4">
          <mxGeometry width="50" height="50" relative="1" as="geometry">
            <mxPoint x="320" y="150" as="sourcePoint" />
            <mxPoint x="370" y="100" as="targetPoint" />
          </mxGeometry>
        </mxCell>
        <mxCell id="2ID9JiFpqE2fWtw1pDJL-1" value="基座&lt;div&gt;渲染器&lt;/div&gt;" style="whiteSpace=wrap;html=1;aspect=fixed;fillColor=#f8cecc;strokeColor=#b85450;container=0;" vertex="1" parent="1">
          <mxGeometry x="190" y="20" width="110" height="110" as="geometry" />
        </mxCell>
        <mxCell id="2ID9JiFpqE2fWtw1pDJL-52" value="存储配置&lt;div&gt;动态组件表&lt;/div&gt;" style="text;html=1;align=center;verticalAlign=middle;whiteSpace=wrap;rounded=0;container=0;" vertex="1" parent="1">
          <mxGeometry x="240" y="-40" width="100" height="30" as="geometry" />
        </mxCell>
      </root>
    </mxGraphModel>
  </diagram>
</mxfile>
